<?xml version="1.0" encoding="utf-8"?>
<!-- Generator: Adobe Illustrator 15.0.0, SVG Export Plug-In . SVG Version: 6.00 Build 0)  -->
<!DOCTYPE svg PUBLIC "-//W3C//DTD SVG 1.1//EN" "http://www.w3.org/Graphics/SVG/1.1/DTD/svg11.dtd">
<svg version="1.1" id="图层_1" xmlns="http://www.w3.org/2000/svg" xmlns:xlink="http://www.w3.org/1999/xlink" x="0px" y="0px"
	 width="595.28px" height="124px" viewBox="0 0 595.28 124" enable-background="new 0 0 595.28 124" xml:space="preserve">
<g>
	<path fill="#FFFFFF" stroke="#036EB8" d="M14.364,31.339h16.992H44.78V9.872h17.898v2.719h54.092l-6.457,12.064H62.678v6.684
		h35.004h17.955L115.75,72.8L98.758,86.167L73.61,86.224v7.023h44.406l-6.514,12.234H73.61v5.211l-17.955,7.76v-12.971H13.911
		V93.247h41.744v-7.023H14.42L14.364,31.339z M95.02,52.013l-6.4,12.178l-56.301-0.057v9.629h65.363V43.573H32.319v8.439H95.02z"/>
	<path fill="#FFFFFF" stroke="#036EB8" d="M198.672,59.206l33.191,20.334h-27.131L181,64.757L157.268,79.54h-27.074l33.078-20.334
		h-32.229V48.671h40.498v-3.398h18.861v3.398h16.652l-1.869-4.135h15.52l1.926,4.135h9.912l-4.814,10.535H198.672z M177.772,11.571
		v19.824l-16.029,12.518h-31.379V11.571H177.772z M177.942,83.108v18.975l-16.029,12.518H130.59V83.108H177.942z M147.583,22.729
		v10.082h12.971V22.729H147.583z M147.752,94.21v9.459l12.971,0.057l0.057-9.516H147.752z M231.467,11.571v19.031l-16.029,12.574
		h-31.322V11.571H231.467z M231.467,83.108v18.975l-16.029,12.518h-31.322V83.108H231.467z M201.334,22.729v9.516h12.914
		l0.057-9.516H201.334z M201.334,94.21v9.459l12.914,0.057l0.057-9.516H201.334z"/>
	<path fill="#FFFFFF" stroke="#036EB8" d="M296.094,21.54l-5.947,13.65h-12.574v75.729l-14.727,6.117V35.19h-18.635V21.54h18.635
		V10.835h14.727V21.54H296.094z M244.211,110.579l3.455-68.818h13.48l-2.549,68.818H244.211z M279.102,41.761h13.311l2.775,68.592
		h-14.047L279.102,41.761z M298.133,11.628h46.163v89.209h5.607l-5.834,13.65h-15.236V25.505H313.88v83.941l-15.747,7.25V11.628z"/>
	<path fill="#FFFFFF" stroke="#036EB8" d="M430.673,59.206l33.191,20.334h-27.131l-23.732-14.783L389.269,79.54h-27.074
		l33.078-20.334h-32.229V48.671h40.498v-3.398h18.861v3.398h16.652l-1.869-4.135h15.52l1.926,4.135h9.912l-4.814,10.535H430.673z
		 M409.772,11.571v19.824l-16.029,12.518h-31.379V11.571H409.772z M409.942,83.108v18.975l-16.029,12.518h-31.322V83.108H409.942z
		 M379.583,22.729v10.082h12.971V22.729H379.583z M379.753,94.21v9.459l12.971,0.057l0.057-9.516H379.753z M463.468,11.571v19.031
		l-16.029,12.574h-31.322V11.571H463.468z M463.468,83.108v18.975l-16.029,12.518h-31.322V83.108H463.468z M433.335,22.729v9.516
		h12.914l0.057-9.516H433.335z M433.335,94.21v9.459l12.914,0.057l0.057-9.516H433.335z"/>
	<path fill="#FFFFFF" stroke="#036EB8" d="M522.204,9.532h21.58l-14.273,32.852h16.029l35.004,72.557l-22.77,0.057l-30.926-65.08
		l-27.074,65.703l-21.807-0.057L522.204,9.532z"/>
</g>
</svg>
