<?xml version="1.0" encoding="UTF-8"?>
<!DOCTYPE svg PUBLIC "-//W3C//DTD SVG 1.1//EN" "http://www.w3.org/Graphics/SVG/1.1/DTD/svg11.dtd">
<!-- Creator: CorelDRAW 2019 (64-Bit) -->
<svg xmlns="http://www.w3.org/2000/svg" xml:space="preserve" width="108px" height="87px" version="1.1" style="shape-rendering:geometricPrecision; text-rendering:geometricPrecision; image-rendering:optimizeQuality; fill-rule:evenodd; clip-rule:evenodd"
viewBox="0 0 151.3 121.88"
 xmlns:xlink="http://www.w3.org/1999/xlink"
 xmlns:xodm="http://www.corel.com/coreldraw/odm/2003">
 <defs>
  <style type="text/css">
   <![CDATA[
    .fil0 {fill:none}
    .fil1 {fill:#332C2B}
    .fil2 {fill:#332C2B;fill-rule:nonzero}
   ]]>
  </style>
 </defs>
 <g id="图层_x0020_1">
  <metadata id="CorelCorpID_0Corel-Layer"/>
  <rect class="fil0" width="151.3" height="121.88"/>
  <g id="_2209722120672">
   <g>
    <path class="fil1" d="M57.33 38.44c0,2.19 0.31,4.25 0.91,6.26 0.46,1.54 1.16,3.2 2.05,4.52 -0.15,0.1 -0.38,0.3 -0.52,0.43 -0.12,0.12 -0.14,0.12 -0.26,0.21 -0.12,0.1 -0.17,0.16 -0.29,0.25l-4.31 3.63c-0.12,0.11 -0.14,0.12 -0.26,0.21 -0.11,0.1 -0.17,0.15 -0.28,0.25 -0.42,0.32 -1.92,1.52 -2.13,1.84 -0.1,0.17 -0.24,0.5 -0.24,0.76l0 8.65c0,0.65 0.65,1.36 1.3,1.36l44.7 0c0.65,0 1.3,-0.65 1.3,-1.3l0 -10.25c0,-1.63 -2.84,-1.84 -2.84,0.12l0 8.59 -41.62 0 0 -6.34c0,-0.21 1.24,-1.15 1.49,-1.35 0.83,-0.67 1.6,-1.4 2.44,-2.06l0.91 -0.75c0.74,-0.63 1.46,-1.34 2.26,-1.88 0.12,0.09 0.19,0.21 0.32,0.34 0.33,0.34 0.65,0.81 1.05,1.08 -0.29,0.43 -1.15,1.03 -1.55,1.36l-1.58 1.32c-0.75,0.68 -1.93,1.69 -2.74,2.3 -0.15,0.11 -0.29,0.2 -0.29,0.47l0 3.97c0,0.38 0.34,0.53 0.71,0.53l36.06 0c0.28,0 0.71,-0.13 0.71,-0.47l0 -5.69c0,-0.72 -1.13,-0.64 -1.13,-0.12l0 5.1 -35.23 0 0 -2.84c0,-0.21 0.52,-0.55 0.69,-0.68 1.27,-0.99 2.45,-2.09 3.7,-3.11 0.26,-0.2 0.49,-0.4 0.75,-0.62 0.24,-0.2 0.52,-0.49 0.78,-0.63 0.38,0.25 1.33,1.08 2.16,1.63 0.21,0.14 0.38,0.24 0.59,0.37 2.38,1.41 4.93,2.39 7.74,2.73 2.34,0.28 4.88,0.15 6.92,-0.35 1.46,-0.35 2.87,-0.81 4.2,-1.48 0.32,-0.16 1,-0.58 1.31,-0.65 0.46,0.34 2.55,4.26 3.2,4.68 0.63,0.41 1.49,0.39 2.05,-0.13 0.54,-0.5 0.68,-1.4 0.29,-2.04l-1.14 -1.76c-0.11,-0.17 -0.16,-0.28 -0.27,-0.44 -0.47,-0.72 -1.01,-1.44 -1.41,-2.2 0.09,-0.14 0.18,-0.22 0.32,-0.33l0.62 -0.57c0.01,-0.01 0.03,-0.02 0.03,-0.03l0.77 -0.77c0.01,-0.01 0.02,-0.02 0.03,-0.03 0.01,-0.01 0.02,-0.02 0.03,-0.03 1.44,-1.58 2.65,-3.32 3.56,-5.26 1.09,-2.36 1.86,-5.22 1.86,-7.85 0,-1.81 -0.06,-3.58 -0.5,-5.31 -0.29,-1.16 -0.66,-2.25 -1.09,-3.34 -0.31,-0.78 -0.7,-1.5 -1.1,-2.22 -0.42,-0.74 -0.56,-0.8 -1.39,-0.68 -0.28,0.04 -0.61,0.17 -0.81,0.31 -0.38,0.29 -0.85,0.89 -0.85,1.4 0,0.18 0.77,1.49 0.97,1.88 0.32,0.64 0.6,1.34 0.81,2.03 0.14,0.49 0.28,1 0.4,1.49 0.28,1.11 0.5,3.16 0.38,4.27 -0.04,0.3 0.01,0.63 -0.02,0.93 -0.39,3.62 -1.69,6.75 -3.89,9.44 -0.44,0.54 -1.36,1.57 -1.91,1.94 -0.24,-0.37 -0.46,-0.74 -0.72,-1.11 -0.18,-0.27 -0.62,-0.87 -0.7,-1.14l1.49 -1.48c0.47,-0.51 0.9,-1.09 1.28,-1.67 0.55,-0.82 1,-1.69 1.35,-2.62 1.49,-3.91 1.26,-8.61 -0.93,-12.23 -0.08,-0.13 -0.15,-0.28 -0.25,-0.4 -0.31,-0.41 -0.99,-0.01 -1.15,0.35 -0.11,0.26 0.23,0.59 0.35,0.81 1.63,3.16 2.08,6.16 1.2,9.68 -0.23,0.93 -0.59,1.77 -0.97,2.52 -0.2,0.42 -0.4,0.7 -0.63,1.09 -0.47,0.8 -1.78,2.44 -2.51,2.82 -1.11,-1.66 -0.89,-1.24 -0.62,-2.05 0.85,-2.56 -1,-5.35 -3.93,-5.35 -0.4,0 -0.52,0.06 -0.89,0.06 0.08,0.34 1.85,2.73 2.15,3.17 0.47,0.67 0.44,0.54 0.02,1.37 -0.14,0.28 -0.26,0.47 -0.34,0.79 -0.58,0 -1.07,0.12 -1.71,0.12 -0.17,0 -0.28,-0.27 -0.38,-0.4l-1.64 -2.33c-0.17,-0.24 -0.42,-0.81 -0.71,-0.89 -0.1,0.43 -1.19,2 -0.2,3.99 0.28,0.55 0.62,1.02 1.1,1.4 0.76,0.6 1.58,0.95 2.65,0.95 0.27,0 0.91,-0.1 1.07,-0.17 0.19,0.35 0.61,0.82 0.71,1.18 -0.21,0.05 -0.35,0.14 -0.54,0.23 -1.28,0.6 -2.99,1.01 -4.43,1.01 -1.48,0 -2.56,-0.03 -3.97,-0.41 -0.8,-0.21 -1.6,-0.5 -2.29,-0.85 -3.46,-1.75 -6.15,-4.89 -6.95,-8.74 -0.62,-2.97 -0.36,-5.31 0.77,-8.07 0.45,-1.12 1.31,-2.49 2.18,-3.39 0.08,-0.08 0.13,-0.12 0.21,-0.2l0.43 -0.46c1.59,-1.59 3.64,-2.71 5.85,-3.26 0.47,-0.12 0.9,-0.18 1.36,-0.25 1.79,-0.26 3.79,-0.07 5.42,0.41l1.84 0.7c0.18,0.08 0.22,0.12 0.35,0.05 0.37,-0.17 0.42,-0.63 0.42,-1 0,-0.24 -1.05,-0.6 -1.27,-0.68 -0.5,-0.18 -0.99,-0.36 -1.54,-0.48 -0.53,-0.11 -1.08,-0.27 -1.63,-0.31 -1.88,-0.15 -3.16,-0.17 -5.01,0.25 -2.02,0.46 -3.75,1.29 -5.37,2.51l-1.83 1.66c-0.18,0.18 -0.26,0.25 -0.42,0.46 -0.81,1.04 -1.51,2.02 -2.08,3.26 -0.38,0.82 -0.68,1.65 -0.91,2.58 -0.29,1.19 -0.28,2 -0.41,3.15 -0.05,0.48 0.23,2.76 0.32,3.15 0.06,0.26 0.09,0.46 0.16,0.72 0.63,2.22 1.74,4.26 3.29,5.95l2.35 2.04c0.11,0.07 0.15,0.12 0.27,0.2 0.19,0.12 0.35,0.22 0.55,0.34 0.39,0.24 0.75,0.41 1.16,0.62 3.48,1.76 8.22,1.8 11.84,0.17 0.22,-0.1 0.4,-0.23 0.65,-0.29 0.05,0.18 0.23,0.44 0.34,0.6l1.14 1.77c-0.76,0.5 -1.75,0.88 -2.63,1.22l-0.98 0.32c-2.88,0.82 -5.47,0.8 -8.36,0.19 -1.39,-0.29 -2.61,-0.77 -3.78,-1.38 -0.14,-0.07 -0.19,-0.11 -0.33,-0.19 -0.14,-0.08 -0.22,-0.11 -0.35,-0.19 -0.88,-0.52 -1.67,-1.06 -2.44,-1.71 -2.11,-1.78 -3.76,-4.07 -4.79,-6.64 -1.59,-3.98 -1.59,-8.72 -0.02,-12.65 0.07,-0.17 0.11,-0.34 0.19,-0.52l0.72 -1.42c0.15,-0.31 0.35,-0.64 0.54,-0.93 0.98,-1.49 1.7,-2.3 2.97,-3.49 0.62,-0.57 1.29,-1.09 2,-1.56 3.64,-2.43 8.3,-3.34 12.63,-2.32 1.38,0.32 2.51,0.76 3.77,1.33 0.16,0.07 -0.14,-0.04 0.08,0.04 0.35,0.11 0.95,-0.46 1.18,-0.75 0.35,-0.42 0.42,-1.16 0.26,-1.71 -0.06,-0.23 -0.09,-0.31 -0.27,-0.44 -0.31,-0.23 -0.58,-0.36 -0.96,-0.51 -4.68,-1.86 -9.34,-2.01 -14.09,-0.44 -0.35,0.12 -0.58,0.23 -0.9,0.34 -2.22,0.79 -5.47,2.95 -7.06,4.85 -1.29,1.52 -2.01,2.28 -3.02,4.21 -0.5,0.97 -0.95,1.94 -1.32,3 -0.7,1.97 -1.1,4.23 -1.1,6.36z"/>
    <path class="fil1" d="M52 11.9l0 9.36c0,0.81 0.54,1.37 1.33,1.46 0.73,0.09 1.51,-0.59 1.51,-1.28l0 -8.06 41.62 0 0 6.81c-0.18,0.05 -0.29,0.19 -0.54,0.4l-6.08 4.89c-0.19,0.16 -0.37,0.28 -0.56,0.45 -0.89,0.78 -2.49,1.94 -3.31,2.66 -0.2,0.18 -0.36,0.28 -0.56,0.45l-3.3 2.68c-0.4,0.31 -0.74,0.57 -1.12,0.9l-1.12 0.89c-0.8,0.65 -1.07,1.5 -0.36,2.28 0.23,0.24 0.72,0.46 0.97,0.46 0.79,0 1.25,-0.6 1.71,-0.95l3.26 -2.61c0.2,-0.15 0.38,-0.32 0.58,-0.48l7.39 -5.94c1.58,-1.18 3.44,-2.85 5.02,-4.04 0.37,-0.27 0.86,-0.67 0.86,-1.27l0 -9.12c0,-0.65 -0.65,-1.3 -1.3,-1.3l-44.7 0c-0.65,0 -1.3,0.71 -1.3,1.36z"/>
    <path class="fil1" d="M57.15 16.34l0 5.1c0,0.57 1.12,0.57 1.12,0l0 -4.45 34.52 0c0,2.16 0.21,1.33 -1.05,2.51 -0.1,0.09 -0.14,0.14 -0.24,0.23 -0.14,0.11 -0.16,0.11 -0.29,0.24l-6.07 5.36c-0.12,0.1 -0.15,0.1 -0.27,0.21 -0.54,0.51 -0.72,0.47 -0.72,0.99 0,0.3 0.29,0.54 0.53,0.54 0.44,0 1.19,-0.87 1.56,-1.17l1.45 -1.28c0.12,-0.11 0.16,-0.12 0.29,-0.24 0.13,-0.12 0.17,-0.17 0.31,-0.28 0.13,-0.1 0.16,-0.13 0.28,-0.25l1.45 -1.27c0.13,-0.13 0.16,-0.14 0.29,-0.25 0.12,-0.09 0.18,-0.17 0.31,-0.28l0.29 -0.24c0.13,-0.12 0.16,-0.14 0.29,-0.25 0.22,-0.17 0.35,-0.34 0.59,-0.53l0.57 -0.5c0.22,-0.2 0.39,-0.33 0.59,-0.53l0.16 -0.14c0.01,-0.01 0.02,-0.02 0.03,-0.03 0.39,-0.33 0.84,-0.61 0.84,-1l0 -2.43c0,-0.32 -0.28,-0.59 -0.6,-0.59l-35.58 0c-0.37,0 -0.65,0.17 -0.65,0.53z"/>
   </g>
   <path class="fil2" d="M21.88 88.98l0 -1.86 8.15 0 0 -1.51 -5.86 0c-0.64,0 -1.13,-0.16 -1.47,-0.49 -0.31,-0.3 -0.47,-0.71 -0.47,-1.23l0 -4.77c0,-0.57 0.2,-1.02 0.6,-1.35 0.31,-0.24 0.75,-0.36 1.33,-0.36l5.31 0 0 -3.62 1.84 0 0 0.86 8.77 0 0 1.69 -8.77 0 0 1.07 6.07 0c0.55,0 0.92,0.04 1.11,0.09 0.81,0.24 1.21,0.79 1.21,1.66l0 4.52c0,1.29 -0.63,1.93 -1.91,1.93l-5.9 0 0 1.51 8.15 0 0 1.86 -8.15 0 0 1.66 -1.86 0 0 -1.66 -8.15 0zm15.99 -6.47l-13.81 0 -0.01 0.4c-0.01,0.27 0.02,0.47 0.08,0.58 0.09,0.19 0.29,0.28 0.58,0.28l12.36 0c0.54,0 0.8,-0.21 0.8,-0.62l0 -0.64zm-13.81 -1.85l13.81 0 0 -0.78c0,-0.22 -0.06,-0.37 -0.16,-0.47 -0.11,-0.1 -0.38,-0.16 -0.8,-0.16l-12.15 0.01c-0.27,0 -0.46,0.05 -0.56,0.13 -0.11,0.1 -0.16,0.26 -0.15,0.48l0.01 0.79zm20.09 4.38l0 -1.65c1.47,-0.12 2.67,-0.3 3.61,-0.54 0.59,-0.15 1.22,-0.4 1.89,-0.75l-5.5 0 0 -1.84 7.75 0c0.16,-0.26 0.28,-0.51 0.36,-0.73l2.22 0 -0.26 0.73 4.74 0 0 -1.08 1.88 0 0 1.08 1.49 0 0 1.84 -5.47 0c1.5,0.73 3.35,1.16 5.57,1.28l0 1.66c-1.51,-0.1 -2.85,-0.3 -4.02,-0.6 -1.8,-0.47 -3.36,-1.25 -4.66,-2.34l-0.98 0c-0.75,0.62 -1.46,1.09 -2.12,1.41 -1.72,0.84 -3.88,1.35 -6.5,1.53zm18.28 1.13l0 3.3c0,0.35 -0.12,0.64 -0.36,0.87 -0.24,0.23 -0.62,0.35 -1.15,0.35l-5.7 0c-0.39,0 -0.71,-0.11 -0.97,-0.32 -0.27,-0.23 -0.4,-0.52 -0.4,-0.87l0 -3.19c0,-0.81 0.42,-1.22 1.27,-1.22l5.89 0c0.4,0 0.67,0.04 0.81,0.13 0.41,0.25 0.61,0.56 0.61,0.95zm-1.77 2.47l0 -1.59c0,-0.24 -0.19,-0.36 -0.56,-0.36l-3.94 0c-0.33,0 -0.49,0.17 -0.49,0.52l0 1.38c0,0.32 0.2,0.47 0.59,0.47l3.86 0c0.36,0 0.54,-0.14 0.54,-0.42zm-7.99 -2.47l0 3.3c0,0.35 -0.12,0.64 -0.36,0.87 -0.24,0.23 -0.63,0.35 -1.15,0.35l-5.7 0c-0.4,0 -0.71,-0.11 -0.97,-0.32 -0.27,-0.23 -0.4,-0.52 -0.4,-0.87l0 -3.19c0,-0.81 0.41,-1.22 1.24,-1.22l5.91 0c0.41,0 0.68,0.04 0.82,0.13 0.4,0.24 0.61,0.56 0.61,0.95zm-1.78 2.47l0 -1.59c0,-0.24 -0.19,-0.36 -0.57,-0.36l-3.96 0c-0.33,0 -0.49,0.17 -0.49,0.52l0 1.38c0,0.32 0.2,0.47 0.59,0.47l3.89 0c0.36,0 0.54,-0.14 0.54,-0.42zm1.78 -13.71l0 2.7c0.01,0.31 -0.1,0.59 -0.33,0.84 -0.19,0.22 -0.53,0.33 -1.01,0.33l-5.96 0c-0.34,0 -0.63,-0.11 -0.87,-0.31 -0.23,-0.22 -0.35,-0.49 -0.35,-0.82l0 -2.59c0,-0.82 0.41,-1.24 1.22,-1.24l5.85 0c0.48,0 0.84,0.11 1.08,0.32 0.24,0.23 0.36,0.48 0.37,0.77zm-1.94 1.84l0 -0.91c0,-0.14 -0.02,-0.24 -0.07,-0.29 -0.07,-0.05 -0.22,-0.08 -0.46,-0.08l-3.64 0c-0.28,0 -0.41,0.13 -0.41,0.4l0 0.83c0,0.31 0.2,0.47 0.58,0.47l3.47 0c0.35,0 0.53,-0.14 0.53,-0.42zm11.7 -1.84l0 2.7c0,0.31 -0.1,0.59 -0.32,0.84 -0.21,0.22 -0.55,0.33 -1.02,0.33l-5.94 0c-0.36,0 -0.65,-0.11 -0.89,-0.31 -0.23,-0.22 -0.35,-0.49 -0.35,-0.82l0 -2.59c0,-0.82 0.42,-1.24 1.27,-1.24l5.83 0c0.47,0 0.82,0.11 1.06,0.32 0.24,0.23 0.36,0.48 0.36,0.77zm-1.94 1.84l0 -0.91c0,-0.14 -0.02,-0.24 -0.07,-0.29 -0.06,-0.05 -0.21,-0.08 -0.45,-0.08l-3.65 0c-0.27,0 -0.41,0.13 -0.41,0.4l0 0.83c0,0.31 0.2,0.47 0.59,0.47l3.47 0c0.35,0 0.52,-0.14 0.52,-0.42zm5.95 13.85l0 -1.71c0.18,-0.03 0.29,-0.09 0.35,-0.19 0.04,-0.1 0.07,-0.31 0.08,-0.66l0.1 -10 1.71 0 -0.16 10.55c0,0.66 -0.28,1.19 -0.82,1.58 -0.33,0.24 -0.74,0.38 -1.26,0.43zm0.19 -13.53l0 -1.85 2.7 0 0 -1.38 1.83 0 0 1.38 2.49 0 0 1.85 -2.49 0 0 13.6 -1.83 0 0 -13.6 -2.7 0zm5.38 13.6l0 -12.66 1.53 0 0 12.66 -1.53 0zm1.97 0.04l0 -1.86c0.49,-0.16 0.81,-0.48 0.99,-0.96 0.17,-0.46 0.26,-1.11 0.25,-1.93l-0.02 -9.5c0,-0.91 0.19,-1.55 0.57,-1.93 0.33,-0.33 0.83,-0.5 1.48,-0.5l3.82 0c0.86,0 1.46,0.15 1.79,0.45 0.41,0.37 0.62,0.97 0.62,1.81l0 11.06c0,0.61 0.13,1.01 0.39,1.2 0.19,0.13 0.48,0.21 0.85,0.23l0 1.89c-0.92,-0.01 -1.63,-0.23 -2.14,-0.66 -0.64,-0.55 -0.97,-1.36 -0.97,-2.44l0 -10.75c0,-0.39 -0.04,-0.63 -0.13,-0.74 -0.09,-0.14 -0.29,-0.21 -0.58,-0.21l-3.11 0c-0.3,0 -0.51,0.08 -0.61,0.23 -0.09,0.13 -0.13,0.36 -0.13,0.67l0 9.56c0,1.42 -0.28,2.51 -0.84,3.27 -0.41,0.54 -1.15,0.92 -2.23,1.11zm14.82 -5.69l0 -1.65c1.47,-0.12 2.67,-0.3 3.61,-0.54 0.59,-0.15 1.22,-0.4 1.89,-0.75l-5.5 0 0 -1.84 7.75 0c0.16,-0.26 0.28,-0.51 0.36,-0.73l2.22 0 -0.26 0.73 4.74 0 0 -1.08 1.88 0 0 1.08 1.49 0 0 1.84 -5.47 0c1.5,0.73 3.35,1.16 5.57,1.28l0 1.66c-1.51,-0.1 -2.85,-0.3 -4.02,-0.6 -1.8,-0.47 -3.36,-1.25 -4.66,-2.34l-0.98 0c-0.75,0.62 -1.46,1.09 -2.12,1.41 -1.72,0.84 -3.88,1.35 -6.5,1.53zm18.28 1.13l0 3.3c0,0.35 -0.12,0.64 -0.36,0.87 -0.24,0.23 -0.62,0.35 -1.15,0.35l-5.7 0c-0.39,0 -0.71,-0.11 -0.97,-0.32 -0.27,-0.23 -0.4,-0.52 -0.4,-0.87l0 -3.19c0,-0.81 0.42,-1.22 1.27,-1.22l5.89 0c0.4,0 0.67,0.04 0.81,0.13 0.41,0.25 0.61,0.56 0.61,0.95zm-1.77 2.47l0 -1.59c0,-0.24 -0.19,-0.36 -0.56,-0.36l-3.94 0c-0.33,0 -0.48,0.17 -0.48,0.52l0 1.38c0,0.32 0.19,0.47 0.58,0.47l3.86 0c0.36,0 0.54,-0.14 0.54,-0.42zm-7.99 -2.47l0 3.3c0,0.35 -0.12,0.64 -0.36,0.87 -0.24,0.23 -0.63,0.35 -1.15,0.35l-5.7 0c-0.4,0 -0.71,-0.11 -0.97,-0.32 -0.27,-0.23 -0.4,-0.52 -0.4,-0.87l0 -3.19c0,-0.81 0.41,-1.22 1.24,-1.22l5.91 0c0.41,0 0.68,0.04 0.82,0.13 0.4,0.24 0.61,0.56 0.61,0.95zm-1.78 2.47l0 -1.59c0,-0.24 -0.19,-0.36 -0.57,-0.36l-3.96 0c-0.33,0 -0.49,0.17 -0.49,0.52l0 1.38c0,0.32 0.2,0.47 0.59,0.47l3.89 0c0.36,0 0.54,-0.14 0.54,-0.42zm1.78 -13.71l0 2.7c0.01,0.31 -0.1,0.59 -0.33,0.84 -0.19,0.22 -0.53,0.33 -1.01,0.33l-5.95 0c-0.35,0 -0.64,-0.11 -0.88,-0.31 -0.23,-0.22 -0.35,-0.49 -0.35,-0.82l0 -2.59c0,-0.82 0.41,-1.24 1.23,-1.24l5.84 0c0.48,0 0.84,0.11 1.08,0.32 0.24,0.23 0.36,0.48 0.37,0.77zm-1.94 1.84l0 -0.91c0,-0.14 -0.02,-0.24 -0.07,-0.29 -0.07,-0.05 -0.22,-0.08 -0.46,-0.08l-3.64 0c-0.28,0 -0.41,0.13 -0.41,0.4l0 0.83c0,0.31 0.2,0.47 0.58,0.47l3.47 0c0.35,0 0.53,-0.14 0.53,-0.42zm11.7 -1.84l0 2.7c0,0.31 -0.1,0.59 -0.32,0.84 -0.21,0.22 -0.55,0.33 -1.02,0.33l-5.94 0c-0.36,0 -0.65,-0.11 -0.89,-0.31 -0.23,-0.22 -0.35,-0.49 -0.35,-0.82l0 -2.59c0,-0.82 0.42,-1.24 1.27,-1.24l5.83 0c0.47,0 0.82,0.11 1.06,0.32 0.24,0.23 0.36,0.48 0.36,0.77zm-1.94 1.84l0 -0.91c0,-0.14 -0.02,-0.24 -0.07,-0.29 -0.06,-0.05 -0.21,-0.08 -0.45,-0.08l-3.65 0c-0.27,0 -0.41,0.13 -0.41,0.4l0 0.83c0,0.31 0.2,0.47 0.59,0.47l3.47 0c0.35,0 0.52,-0.14 0.52,-0.42zm6.03 13.91l0 -1.85c0.6,0 1.07,-0.09 1.4,-0.25 0.52,-0.25 0.93,-0.69 1.22,-1.3l6.53 -13.42 2.03 0 -1.81 3.72 5.94 9.33c0.81,1.27 1.75,1.91 2.81,1.91 0.02,0 0.06,0 0.13,-0.01l0 1.82c-0.97,-0.06 -1.78,-0.28 -2.44,-0.66 -0.72,-0.4 -1.31,-0.99 -1.79,-1.74l-5.54 -8.81 -4.33 8.85c-0.48,0.99 -1.25,1.69 -2.31,2.09 -0.57,0.21 -1.18,0.32 -1.84,0.32z"/>
   <g>
    <polygon class="fil2" points="53.74,97.18 46.45,107.3 53.73,107.3 53.73,109.78 42.34,109.78 42.34,108.09 49.75,98.02 42.89,98.02 42.89,95.54 53.74,95.54 "/>
    <path class="fil2" d="M56.34 102.49c0,-2.23 0.65,-4.05 1.96,-5.45 1.3,-1.4 3.02,-2.1 5.16,-2.1 2.04,0 3.67,0.68 4.92,2.03 1.24,1.36 1.86,3.1 1.86,5.22 0,2.22 -0.65,4.03 -1.94,5.41 -0.08,0.09 -0.16,0.17 -0.24,0.25l3.62 3.49 -4.5 0 -1.89 -1.93c-0.64,0.18 -1.32,0.26 -2.06,0.26 -2.04,0 -3.7,-0.67 -4.97,-2.01 -1.28,-1.34 -1.92,-3.06 -1.92,-5.17zm3.19 -0.17c0,1.39 0.34,2.52 1.01,3.4 0.66,0.88 1.58,1.32 2.75,1.32 1.19,0 2.11,-0.42 2.77,-1.26 0.67,-0.85 1,-1.98 1,-3.4 0,-1.49 -0.32,-2.66 -0.97,-3.52 -0.64,-0.86 -1.55,-1.29 -2.72,-1.29 -1.19,0 -2.13,0.44 -2.81,1.32 -0.68,0.89 -1.03,2.03 -1.03,3.43z"/>
    <path class="fil2" d="M77.45 107.31l6.04 0 0 2.47 -9.47 0 0 -1.05c0,-0.74 0.13,-1.42 0.41,-2.03 0.27,-0.62 0.64,-1.19 1.12,-1.72 0.48,-0.53 1.22,-1.15 2.23,-1.86 0.92,-0.69 1.56,-1.3 1.93,-1.83 0.37,-0.53 0.55,-1.09 0.55,-1.69 0,-1.28 -0.7,-1.92 -2.1,-1.92 -1.22,0 -2.39,0.49 -3.51,1.47l0 -2.64c1.24,-0.81 2.64,-1.21 4.2,-1.21 1.42,0 2.54,0.36 3.37,1.09 0.83,0.73 1.24,1.73 1.24,3 0,0.71 -0.12,1.36 -0.36,1.93 -0.24,0.57 -0.58,1.11 -1.04,1.61 -0.45,0.51 -1.18,1.11 -2.17,1.82 -0.97,0.68 -1.62,1.21 -1.95,1.58 -0.33,0.38 -0.49,0.7 -0.49,0.98zm9.04 -4.41c0,-2.47 0.45,-4.35 1.36,-5.65 0.9,-1.3 2.22,-1.95 3.93,-1.95 3.28,0 4.91,2.42 4.91,7.26 0,2.39 -0.44,4.23 -1.33,5.53 -0.89,1.3 -2.17,1.94 -3.85,1.94 -3.35,0 -5.02,-2.38 -5.02,-7.13zm3 -0.08c0,3.29 0.7,4.93 2.11,4.93 1.38,0 2.07,-1.69 2.07,-5.07 0,-3.4 -0.67,-5.1 -2.02,-5.1 -1.44,0 -2.16,1.75 -2.16,5.24zm13.43 4.49l6.04 0 0 2.47 -9.47 0 0 -1.05c0,-0.74 0.14,-1.42 0.41,-2.03 0.27,-0.62 0.65,-1.19 1.13,-1.72 0.47,-0.53 1.21,-1.15 2.22,-1.86 0.92,-0.69 1.56,-1.3 1.93,-1.83 0.37,-0.53 0.55,-1.09 0.55,-1.69 0,-1.28 -0.7,-1.92 -2.09,-1.92 -1.23,0 -2.4,0.49 -3.51,1.47l0 -2.64c1.24,-0.81 2.63,-1.21 4.19,-1.21 1.42,0 2.54,0.36 3.37,1.09 0.83,0.73 1.24,1.73 1.24,3 0,0.71 -0.12,1.36 -0.35,1.93 -0.24,0.57 -0.59,1.11 -1.04,1.61 -0.46,0.51 -1.18,1.11 -2.18,1.82 -0.97,0.68 -1.61,1.21 -1.95,1.58 -0.32,0.38 -0.49,0.7 -0.49,0.98z"/>
   </g>
  </g>
 </g>
</svg>
