<?xml version="1.0" encoding="UTF-8"?>
<!DOCTYPE svg PUBLIC "-//W3C//DTD SVG 1.1//EN" "http://www.w3.org/Graphics/SVG/1.1/DTD/svg11.dtd">
<!-- Creator: CorelDRAW 2019 (64-Bit) -->
<svg xmlns="http://www.w3.org/2000/svg" xml:space="preserve" width="40px" height="40px" version="1.1" style="shape-rendering:geometricPrecision; text-rendering:geometricPrecision; image-rendering:optimizeQuality; fill-rule:evenodd; clip-rule:evenodd"
viewBox="0 0 3.88 3.88"
 xmlns:xlink="http://www.w3.org/1999/xlink"
 xmlns:xodm="http://www.corel.com/coreldraw/odm/2003">
 <defs>
  <style type="text/css">
   <![CDATA[
    .fil0 {fill:none}
    .fil1 {fill:#332C2B}
   ]]>
  </style>
 </defs>
 <g id="图层_x0020_1">
  <metadata id="CorelCorpID_0Corel-Layer"/>
  <rect class="fil0" width="3.88" height="3.88"/>
  <g id="_2209721983872">
   <path class="fil1" d="M1.12 1.93c0,0.1 0.01,0.19 0.04,0.28 0.02,0.07 0.05,0.14 0.09,0.2 0,0.01 -0.01,0.02 -0.02,0.02 -0.01,0.01 -0.01,0.01 -0.01,0.01 -0.01,0.01 -0.01,0.01 -0.02,0.01l-0.19 0.17c0,0 -0.01,0 -0.01,0.01 -0.01,0 -0.01,0 -0.01,0.01 -0.02,0.01 -0.09,0.07 -0.1,0.08 0,0.01 -0.01,0.02 -0.01,0.03l0 0.39c0,0.03 0.03,0.06 0.06,0.06l2 0c0.03,0 0.06,-0.03 0.06,-0.06l0 -0.46c0,-0.07 -0.13,-0.08 -0.13,0.01l0 0.39 -1.86 0 0 -0.29c0,-0.01 0.05,-0.05 0.06,-0.06 0.04,-0.03 0.08,-0.06 0.11,-0.09l0.04 -0.04c0.04,-0.02 0.07,-0.06 0.11,-0.08 0,0 0,0.01 0.01,0.02 0.02,0.01 0.03,0.03 0.05,0.04 -0.02,0.02 -0.05,0.05 -0.07,0.06l-0.07 0.06c-0.04,0.03 -0.09,0.08 -0.13,0.11 0,0 -0.01,0.01 -0.01,0.02l0 0.18c0,0.01 0.02,0.02 0.03,0.02l1.62 0c0.01,0 0.03,-0.01 0.03,-0.02l0 -0.26c0,-0.03 -0.05,-0.02 -0.05,0l0 0.23 -1.58 0 0 -0.13c0,-0.01 0.03,-0.02 0.03,-0.03 0.06,-0.05 0.11,-0.09 0.17,-0.14 0.01,-0.01 0.02,-0.02 0.03,-0.03 0.01,-0.01 0.03,-0.02 0.04,-0.03 0.01,0.01 0.06,0.05 0.09,0.08 0.01,0 0.02,0.01 0.03,0.01 0.11,0.07 0.22,0.11 0.35,0.13 0.1,0.01 0.22,0 0.31,-0.02 0.06,-0.02 0.13,-0.04 0.19,-0.07 0.01,0 0.04,-0.02 0.05,-0.03 0.03,0.02 0.12,0.2 0.15,0.21 0.03,0.02 0.07,0.02 0.09,0 0.02,-0.02 0.03,-0.06 0.01,-0.09l-0.05 -0.08c0,-0.01 -0.01,-0.01 -0.01,-0.02 -0.02,-0.03 -0.05,-0.07 -0.06,-0.1 0,-0.01 0,-0.01 0.01,-0.02l0.03 -0.02c0,0 0,0 0,0l0.03 -0.04c0.01,0 0.01,0 0.01,0 0,0 0,0 0,0 0.06,-0.07 0.12,-0.15 0.16,-0.24 0.05,-0.1 0.08,-0.23 0.08,-0.35 0,-0.08 0,-0.16 -0.02,-0.23 -0.01,-0.06 -0.03,-0.11 -0.05,-0.15 -0.01,-0.04 -0.03,-0.07 -0.05,-0.1 -0.02,-0.04 -0.03,-0.04 -0.06,-0.03 -0.01,0 -0.03,0 -0.04,0.01 -0.02,0.01 -0.04,0.04 -0.04,0.06 0,0.01 0.04,0.07 0.05,0.09 0.01,0.02 0.02,0.06 0.03,0.09 0.01,0.02 0.02,0.04 0.02,0.06 0.01,0.05 0.02,0.15 0.02,0.2 0,0.01 0,0.02 0,0.04 -0.02,0.16 -0.08,0.3 -0.18,0.42 -0.02,0.02 -0.06,0.07 -0.08,0.09 -0.01,-0.02 -0.02,-0.04 -0.04,-0.05 0,-0.01 -0.02,-0.04 -0.03,-0.05l0.07 -0.07c0.02,-0.02 0.04,-0.05 0.06,-0.07 0.02,-0.04 0.04,-0.08 0.06,-0.12 0.06,-0.18 0.05,-0.39 -0.04,-0.55 -0.01,-0.01 -0.01,-0.01 -0.01,-0.02 -0.02,-0.02 -0.05,0 -0.06,0.02 0,0.01 0.01,0.02 0.02,0.03 0.07,0.15 0.09,0.28 0.05,0.44 -0.01,0.04 -0.02,0.08 -0.04,0.11 -0.01,0.02 -0.02,0.03 -0.03,0.05 -0.02,0.04 -0.08,0.11 -0.11,0.13 -0.05,-0.08 -0.04,-0.06 -0.03,-0.1 0.04,-0.11 -0.04,-0.24 -0.18,-0.24 -0.01,0 -0.02,0.01 -0.04,0.01 0.01,0.01 0.09,0.12 0.1,0.14 0.02,0.03 0.02,0.02 0,0.06 0,0.01 -0.01,0.02 -0.01,0.04 -0.03,0 -0.05,0 -0.08,0 -0.01,0 -0.01,-0.01 -0.02,-0.02l-0.07 -0.1c-0.01,-0.01 -0.02,-0.04 -0.03,-0.04 -0.01,0.02 -0.06,0.09 -0.01,0.18 0.01,0.02 0.03,0.04 0.05,0.06 0.03,0.03 0.07,0.04 0.12,0.04 0.01,0 0.04,0 0.05,0 0,0.01 0.02,0.03 0.03,0.05 -0.01,0 -0.02,0 -0.03,0.01 -0.05,0.03 -0.13,0.04 -0.2,0.04 -0.06,0 -0.11,0 -0.17,-0.01 -0.04,-0.01 -0.08,-0.03 -0.11,-0.04 -0.15,-0.08 -0.27,-0.22 -0.31,-0.39 -0.03,-0.14 -0.01,-0.24 0.04,-0.37 0.02,-0.05 0.06,-0.11 0.09,-0.15 0.01,0 0.01,0 0.01,-0.01l0.02 -0.02c0.07,-0.07 0.17,-0.12 0.27,-0.14 0.02,-0.01 0.04,-0.01 0.06,-0.02 0.08,-0.01 0.17,0 0.24,0.02l0.08 0.03c0.01,0.01 0.01,0.01 0.02,0.01 0.01,-0.01 0.02,-0.03 0.02,-0.05 0,-0.01 -0.05,-0.03 -0.06,-0.03 -0.02,-0.01 -0.05,-0.01 -0.07,-0.02 -0.02,-0.01 -0.05,-0.01 -0.07,-0.01 -0.09,-0.01 -0.14,-0.01 -0.23,0.01 -0.09,0.02 -0.17,0.06 -0.24,0.11l-0.08 0.07c-0.01,0.01 -0.01,0.02 -0.02,0.02 -0.04,0.05 -0.07,0.1 -0.09,0.15 -0.02,0.04 -0.03,0.08 -0.04,0.12 -0.02,0.05 -0.02,0.09 -0.02,0.14 0,0.02 0.01,0.12 0.01,0.14 0.01,0.01 0.01,0.02 0.01,0.03 0.03,0.1 0.08,0.19 0.15,0.27l0.1 0.09c0.01,0 0.01,0 0.01,0.01 0.01,0 0.02,0.01 0.03,0.01 0.02,0.01 0.03,0.02 0.05,0.03 0.16,0.08 0.37,0.08 0.53,0.01 0.01,0 0.02,-0.01 0.03,-0.01 0,0 0.01,0.02 0.02,0.02l0.05 0.08c-0.04,0.03 -0.08,0.04 -0.12,0.06l-0.04 0.01c-0.13,0.04 -0.25,0.04 -0.38,0.01 -0.06,-0.01 -0.12,-0.03 -0.17,-0.06 0,0 -0.01,-0.01 -0.01,-0.01 -0.01,0 -0.01,0 -0.02,-0.01 -0.04,-0.02 -0.07,-0.05 -0.11,-0.08 -0.09,-0.08 -0.17,-0.18 -0.21,-0.29 -0.07,-0.18 -0.07,-0.39 0,-0.57 0,-0.01 0,-0.02 0,-0.02l0.04 -0.07c0,-0.01 0.01,-0.03 0.02,-0.04 0.04,-0.07 0.08,-0.1 0.13,-0.16 0.03,-0.02 0.06,-0.04 0.09,-0.07 0.17,-0.1 0.38,-0.15 0.57,-0.1 0.06,0.02 0.11,0.03 0.17,0.06 0.01,0 -0.01,0 0,0 0.02,0.01 0.05,-0.02 0.06,-0.03 0.01,-0.02 0.01,-0.05 0.01,-0.08 -0.01,-0.01 -0.01,-0.01 -0.01,-0.02 -0.02,-0.01 -0.03,-0.01 -0.05,-0.02 -0.21,-0.08 -0.42,-0.09 -0.63,-0.02 -0.02,0 -0.03,0.01 -0.04,0.01 -0.1,0.04 -0.25,0.14 -0.32,0.22 -0.05,0.07 -0.09,0.1 -0.13,0.19 -0.02,0.04 -0.04,0.09 -0.06,0.14 -0.03,0.08 -0.05,0.18 -0.05,0.28z"/>
   <path class="fil1" d="M0.88 0.74l0 0.42c0,0.04 0.02,0.06 0.06,0.07 0.03,0 0.07,-0.03 0.07,-0.06l0 -0.36 1.86 0 0 0.3c0,0 -0.01,0.01 -0.02,0.02l-0.27 0.22c-0.01,0.01 -0.02,0.01 -0.03,0.02 -0.04,0.03 -0.11,0.09 -0.15,0.12 -0.01,0.01 -0.01,0.01 -0.02,0.02l-0.15 0.12c-0.02,0.01 -0.03,0.02 -0.05,0.04l-0.05 0.04c-0.04,0.03 -0.05,0.07 -0.02,0.1 0.01,0.01 0.04,0.02 0.05,0.02 0.03,0 0.05,-0.02 0.07,-0.04l0.15 -0.12c0.01,0 0.02,-0.01 0.03,-0.02l0.33 -0.27c0.07,-0.05 0.15,-0.12 0.22,-0.18 0.02,-0.01 0.04,-0.03 0.04,-0.05l0 -0.41c0,-0.03 -0.03,-0.06 -0.06,-0.06l-2 0c-0.03,0 -0.06,0.03 -0.06,0.06z"/>
   <path class="fil1" d="M1.11 0.94l0 0.23c0,0.02 0.05,0.02 0.05,0l0 -0.2 1.55 0c0,0.1 0.01,0.06 -0.05,0.11 0,0.01 0,0.01 -0.01,0.01 0,0.01 -0.01,0.01 -0.01,0.01l-0.27 0.24c-0.01,0.01 -0.01,0.01 -0.02,0.01 -0.02,0.02 -0.03,0.02 -0.03,0.05 0,0.01 0.02,0.02 0.03,0.02 0.02,0 0.05,-0.04 0.07,-0.05l0.06 -0.06c0.01,0 0.01,0 0.01,-0.01 0.01,-0.01 0.01,-0.01 0.02,-0.01 0,-0.01 0,-0.01 0.01,-0.01l0.07 -0.06c0,-0.01 0,-0.01 0.01,-0.01 0,-0.01 0.01,-0.01 0.01,-0.01l0.02 -0.02c0,0 0,0 0.01,-0.01 0.01,0 0.01,-0.01 0.02,-0.02l0.03 -0.02c0.01,-0.01 0.02,-0.02 0.03,-0.03l0 0c0,0 0,0 0.01,0 0.01,-0.02 0.03,-0.03 0.03,-0.05l0 -0.11c0,-0.01 -0.01,-0.02 -0.02,-0.02l-1.6 0c-0.02,0 -0.03,0 -0.03,0.02z"/>
  </g>
 </g>
</svg>
